<svg width="785" height="601" viewBox="0 0 785 601" fill="none" xmlns="http://www.w3.org/2000/svg">
    <path fill-rule="evenodd" clip-rule="evenodd" d="M553.091 543.37C540.742 546.038 522.486 543.37 522.486 543.37L471.477 491.081C481.679 479.005 488.611 465.634 486.464 445.893C662.577 367.824 664.928 266.151 666.649 191.758C667.409 158.87 668.046 131.313 683.519 113.484C685.816 113.251 688.379 112.977 691.154 112.681C720.157 109.585 772.259 104.024 785 116.685C767.319 61.4669 726.866 52.8203 702.194 47.547C695.398 46.0943 689.799 44.8976 686.204 43.0537C634.121 -22.5743 547.137 -27.9099 475.725 132.692C423.45 131.484 361.885 204.981 303.398 274.805C261.858 324.397 221.87 372.135 187.865 389.94C185.235 391.153 182.573 392.373 179.873 393.604C182.498 392.581 185.163 391.355 187.865 389.94C229.695 370.644 263.368 353.009 310.349 318.371L328.068 322.106C255.294 382.37 178.259 419.037 102.463 455.115C77.5966 466.951 52.8633 478.724 28.4576 491.245C49.935 493.913 80.051 491.615 113.878 482.544C100.808 496.47 81.3129 513.486 62.1309 530.23C4.87568 580.207 -49.5915 627.75 77.9033 583.387C75.7555 590.857 74.4695 592.397 67.1641 598.327C118.259 612.99 226.179 535.269 285.16 464.403H372.144V492.149C378.761 508.067 388.771 516.469 399.966 525.866C406.032 530.957 412.447 536.341 418.857 543.37H369.459C367.884 544.24 366.425 545.014 365.063 545.735C355.303 550.908 350.565 553.42 344.223 569.515H587.455V564.179C595.387 563.104 600.865 565.379 606.719 567.81C609.583 568.999 612.537 570.226 615.913 571.116C606.521 530.348 571.65 538.865 556.534 542.557C555.23 542.876 554.072 543.159 553.091 543.37ZM310.349 291.681C411.83 324.228 558.903 167.525 449.905 163.256C602.932 156.853 414.514 356.242 297.462 300.751L310.349 291.681ZM460.171 507.386L460.171 507.385C443.754 492.97 429.038 480.048 430.085 452.283L421.495 453.883C419.739 466.442 415.243 471.564 410.231 477.275C407.577 480.298 404.778 483.487 402.165 488.031L448.878 534.984L485.927 534.451C478.305 523.309 468.993 515.132 460.172 507.387L460.171 507.386ZM126.717 472.558C271.153 409.598 341.491 369.047 463.375 272.472C378.54 397.326 216.385 452.283 126.717 472.558Z" fill="#27C394" fill-opacity="0.94902"/>
    <path fill-rule="evenodd" clip-rule="evenodd" d="M628.752 66.1616C637.944 66.1616 645.397 59.9506 645.397 52.289C645.397 44.6274 637.944 38.4164 628.752 38.4164C624.074 38.4164 619.847 40.0246 616.823 42.6139C614.539 44.0639 612.568 45.9648 611.036 48.2047L604.59 57.6246H613.382C615.891 62.6378 621.828 66.1616 628.752 66.1616Z" fill="white"/>
    </svg>